<svg version="1.1" id="Layer_1" xmlns="http://www.w3.org/2000/svg" xmlns:xlink="http://www.w3.org/1999/xlink" x="0px" y="0px"
	 width="100%" viewBox="0 0 1024 1024" enable-background="new 0 0 1024 1024" xml:space="preserve">
<path fill="#000000" opacity="1.000000" stroke="none" 
	d="
M656.206482,727.826782 
	C628.796204,727.985535 601.803589,728.225220 574.815430,727.980103 
	C564.859375,727.889771 559.450378,721.622620 556.362061,712.477539 
	C548.751587,689.941467 540.780884,667.527161 532.944153,645.067627 
	C532.286621,643.183228 531.658997,641.276062 530.826050,639.467651 
	C528.048035,633.436157 523.279907,630.239746 516.640320,630.234802 
	C463.480072,630.195129 410.319794,630.182251 357.159607,630.233215 
	C349.105438,630.240967 344.213043,634.859375 341.633606,642.101929 
	C334.097504,663.261780 326.678802,684.463440 319.160889,705.629822 
	C317.657745,709.861755 316.152649,714.120544 314.233917,718.170654 
	C311.457306,724.031372 306.822144,727.093567 300.088165,727.511414 
	C274.955963,729.070984 249.810074,727.831360 224.674042,728.142517 
	C222.050049,728.174988 219.337158,727.730347 216.803284,727.017395 
	C210.496994,725.242981 207.624222,718.729980 210.347061,710.453186 
	C214.920639,696.550781 220.049820,682.828247 225.084641,669.081055 
	C251.694748,596.424255 278.345245,523.782288 304.988037,451.137482 
	C322.405457,403.646790 339.831696,356.159302 357.258087,308.671906 
	C362.704315,293.830902 368.133850,278.983673 373.629547,264.160950 
	C376.630066,256.068054 378.733429,254.652740 387.256775,254.652008 
	C418.253052,254.649338 449.249359,254.654022 480.245636,254.653305 
	C493.702393,254.653000 499.006287,258.287933 503.752716,271.074951 
	C512.206482,293.849701 520.599365,316.647095 528.982849,339.447815 
	C551.947021,401.904053 574.962646,464.341461 597.825989,526.834595 
	C619.261902,585.425964 640.527893,644.079346 661.872375,702.704163 
	C663.593872,707.432434 664.615479,712.229980 664.421509,717.338074 
	C664.174133,723.851379 663.026489,725.621399 656.206482,727.826782 
M431.667175,380.194031 
	C426.276917,395.745056 420.848816,411.283112 415.504059,426.849792 
	C403.679230,461.290100 391.863770,495.733765 380.125977,530.203796 
	C377.997833,536.453430 379.632233,538.899475 385.941040,538.911377 
	C419.758698,538.975159 453.576630,538.966248 487.394226,538.884644 
	C493.660156,538.869568 495.348236,536.169006 493.328674,530.246887 
	C483.399994,501.132233 473.510468,472.004181 463.555084,442.898651 
	C456.344025,421.816376 449.088837,400.748932 441.744781,379.712769 
	C440.904541,377.306030 440.105011,374.186340 436.715393,374.273132 
	C433.648132,374.351654 433.162476,377.375397 431.667175,380.194031 
z"/>
<path fill="#000000" opacity="1.000000" stroke="none" 
	d="
M616.296936,404.350281 
	C620.533569,400.479645 625.398071,399.646820 630.497437,399.638580 
	C646.996155,399.611877 663.494873,399.624115 679.993591,399.608948 
	C689.730652,399.599976 690.680298,398.669739 690.684814,389.163666 
	C690.693115,371.665009 690.715332,354.166321 690.670288,336.667786 
	C690.661987,333.443481 691.157227,330.364655 692.536621,327.464478 
	C694.562683,323.204803 697.821411,320.660126 702.691528,320.653442 
	C716.023560,320.635071 729.359375,320.463776 742.686401,320.725525 
	C754.271179,320.953033 760.291626,327.490692 760.301514,339.163666 
	C760.316040,356.329010 760.294800,373.494354 760.321899,390.659668 
	C760.333008,397.689301 762.221741,399.605682 769.150513,399.615845 
	C787.149109,399.642242 805.147888,399.596130 823.146301,399.646515 
	C833.024292,399.674194 838.322327,404.955383 838.344482,414.685455 
	C838.372559,427.017761 838.380066,439.350250 838.346436,451.682526 
	C838.319031,461.750977 831.927551,468.298553 821.853516,468.352142 
	C804.355347,468.445251 786.856384,468.369141 769.357727,468.391052 
	C761.722168,468.400604 760.338440,469.787567 760.328308,477.418396 
	C760.305176,494.750336 760.326294,512.082336 760.299988,529.414307 
	C760.283386,540.318298 754.068054,547.028442 743.105835,547.271973 
	C730.279785,547.557007 717.439636,547.516968 704.611450,547.289856 
	C696.026733,547.137878 690.790710,540.652710 690.732849,530.455811 
	C690.634521,513.124329 690.698425,495.791992 690.687439,478.460022 
	C690.681702,469.309631 689.744751,468.367065 680.765259,468.369476 
	C663.599915,468.374084 646.434509,468.399719 629.269226,468.366638 
	C619.249573,468.347321 612.748596,461.891602 612.690186,451.838440 
	C612.619568,439.673126 612.715088,427.506866 612.652710,415.341492 
	C612.632324,411.365936 613.584473,407.780334 616.296936,404.350281 
z"/>
</svg>